<svg width="81" height="41" viewBox="0 0 81 41" fill="none" xmlns="http://www.w3.org/2000/svg">
<g clip-path="url(#clip0_4282_1550)">
<mask id="mask0_4282_1550" style="mask-type:luminance" maskUnits="userSpaceOnUse" x="20" y="0" width="41" height="41">
<path d="M60.6201 0.659912H20.6201V40.6599H60.6201V0.659912Z" fill="white"/>
</mask>
<g mask="url(#mask0_4282_1550)">
<path d="M40.6201 16.1898C40.6201 15.1877 41.4325 14.3753 42.4346 14.3753C43.4367 14.3753 44.2491 15.1877 44.2491 16.1898V14.9921C44.2491 13.99 45.0615 13.1776 46.0636 13.1776C47.0658 13.1776 47.8782 13.99 47.8782 14.9921V13.5474C47.8782 12.53 48.7108 11.6779 49.728 11.6973C50.7138 11.7162 51.5072 12.5212 51.5072 13.5115V14.9921C51.5072 13.99 52.3196 13.1776 53.3217 13.1776C54.3238 13.1776 55.1362 13.99 55.1362 14.9921V32.5302C55.1362 33.9277 54.6253 35.2056 53.7802 36.188C53.229 36.8287 52.9299 37.6482 52.9299 38.4934V40.0491C52.9299 40.3866 52.6869 40.6603 52.3873 40.6603H42.5323C42.2327 40.6603 41.9897 40.3867 41.9897 40.0491V37.3504C41.9897 36.6918 41.8079 36.0455 41.4605 35.486C40.9278 34.6275 40.6201 33.6148 40.6201 32.5303V16.1898Z" fill="url(#paint0_linear_4282_1550)"/>
<path d="M46.8162 27.719C51.2777 27.719 54.8946 29.8961 54.8946 32.5817C54.8946 35.2674 51.2777 37.4445 46.8162 37.4445C44.9509 37.4445 43.2335 37.0638 41.8661 36.4246C41.7774 36.0952 41.6422 35.7785 41.4606 35.4859C40.9278 34.6275 40.6201 33.6148 40.6201 32.5302V29.4618C42.102 28.3966 44.3275 27.719 46.8162 27.719Z" fill="url(#paint1_linear_4282_1550)"/>
<path d="M51.9026 29.0023C52.7822 29.0023 53.5793 29.3539 54.1622 29.9237L56.356 27.73C57.4169 26.6691 59.137 26.6691 60.1979 27.73C60.7607 28.2928 60.7607 29.2051 60.1979 29.7678L53.7948 36.171C52.7654 37.3776 51.2339 38.143 49.5235 38.143H48.3063C46.7753 38.143 45.5342 36.9018 45.5342 35.3708C45.5342 31.8535 48.3855 29.0023 51.9026 29.0023Z" fill="url(#paint2_linear_4282_1550)"/>
<path d="M51.5078 14.9921V24.6979H52C53.7321 24.6979 55.1364 26.1023 55.1364 27.8343V14.9921C55.1364 13.9902 54.3242 13.1775 53.3224 13.1775C52.32 13.1775 51.5078 13.9902 51.5078 14.9921Z" fill="url(#paint3_linear_4282_1550)"/>
<path d="M47.8784 13.5116V24.6979H51.5076V13.5116C51.5076 12.5092 50.6949 11.697 49.693 11.697C48.6906 11.697 47.8784 12.5092 47.8784 13.5116Z" fill="url(#paint4_linear_4282_1550)"/>
<path d="M44.249 14.9921V24.6979H47.8782V14.9921C47.8782 13.9902 47.066 13.1775 46.0636 13.1775C45.0617 13.1775 44.249 13.9902 44.249 14.9921Z" fill="url(#paint5_linear_4282_1550)"/>
<path d="M40.6205 16.1898V27.8342C40.6205 26.1021 42.0248 24.6978 43.7569 24.6978H44.2491V16.1898C44.2491 15.1875 43.4369 14.3752 42.4345 14.3752C41.4326 14.3752 40.6205 15.1875 40.6205 16.1898Z" fill="url(#paint6_linear_4282_1550)"/>
<path d="M58.0189 31.9689L53.793 36.1793C52.7613 37.384 51.2284 38.1465 49.5181 38.1433L48.3009 38.1411L46.227 38.1372C43.1273 38.1315 40.6192 35.6141 40.6249 32.5144L40.626 31.9368L58.0189 31.9689Z" fill="url(#paint7_linear_4282_1550)"/>
<path d="M60.1981 29.7674L53.795 36.1706C53.7919 36.1745 53.7887 36.1776 53.7856 36.1815C53.784 36.1831 53.7817 36.1855 53.7801 36.1878C53.2287 36.8286 52.9299 37.6482 52.9299 38.4929V40.049C52.9299 40.3862 52.6868 40.66 52.3872 40.66H50.5707L40.6201 30.7102V16.1894C40.6201 15.1878 41.4326 14.3753 42.4342 14.3753C43.4366 14.3753 44.2491 15.1878 44.2491 16.1894V14.9917C44.2491 13.9902 45.0617 13.1776 46.0632 13.1776C47.0656 13.1776 47.8781 13.9902 47.8781 14.9917V13.547C47.8781 12.5298 48.7111 11.678 49.7283 11.6968C50.7134 11.7157 51.5072 12.5211 51.5072 13.5117V14.9917C51.5072 14.4906 51.7103 14.0372 52.0389 13.7094C52.3668 13.3807 52.8209 13.1776 53.3213 13.1776C54.3236 13.1776 55.1362 13.9902 55.1362 14.9917V28.9494L56.3558 27.7298C57.417 26.6686 59.137 26.6686 60.1981 27.7298C60.7605 28.2921 60.7605 29.2051 60.1981 29.7674Z" fill="url(#paint8_linear_4282_1550)"/>
<path d="M40.6201 16.1898C40.6201 15.1877 39.8077 14.3753 38.8056 14.3753C37.8034 14.3753 36.991 15.1877 36.991 16.1898V14.9921C36.991 13.99 36.1787 13.1776 35.1765 13.1776C34.1744 13.1776 33.362 13.99 33.362 14.9921V13.5474C33.362 12.53 32.5294 11.6779 31.5121 11.6973C30.5263 11.7162 29.733 12.5212 29.733 13.5115V14.9921C29.733 13.99 28.9206 13.1776 27.9185 13.1776C26.9163 13.1776 26.1039 13.99 26.1039 14.9921V32.5302C26.1039 33.9277 26.6148 35.2056 27.4599 36.188C28.0112 36.8287 28.3102 37.6482 28.3102 38.4934V40.0491C28.3102 40.3866 28.5532 40.6603 28.8528 40.6603H38.7079C39.0075 40.6603 39.2505 40.3867 39.2505 40.0491V37.3504C39.2505 36.6918 39.4323 36.0455 39.7797 35.486C40.3124 34.6275 40.6201 33.6148 40.6201 32.5303V16.1898Z" fill="url(#paint9_linear_4282_1550)"/>
<path d="M34.4241 27.719C29.9625 27.719 26.3456 29.8961 26.3456 32.5817C26.3456 35.2674 29.9625 37.4445 34.4241 37.4445C36.2894 37.4445 38.0068 37.0638 39.3742 36.4246C39.4629 36.0952 39.5981 35.7785 39.7797 35.4859C40.3125 34.6275 40.6202 33.6148 40.6202 32.5302V29.4618C39.1383 28.3966 36.9128 27.719 34.4241 27.719Z" fill="url(#paint10_linear_4282_1550)"/>
<path d="M29.3374 29.0023C28.4578 29.0023 27.6608 29.3539 27.0778 29.9237L24.8841 27.73C23.8231 26.6691 22.1031 26.6691 21.0421 27.73C20.4794 28.2928 20.4794 29.2051 21.0421 29.7678L27.4453 36.171C28.4747 37.3776 30.0061 38.143 31.7166 38.143H32.9338C34.4648 38.143 35.7059 36.9018 35.7059 35.3708C35.7058 31.8535 32.8546 29.0023 29.3374 29.0023Z" fill="url(#paint11_linear_4282_1550)"/>
<path d="M29.7326 14.9921V24.6979H29.2403C27.5083 24.6979 26.1039 26.1023 26.1039 27.8343V14.9921C26.1039 13.9902 26.9162 13.1775 27.918 13.1775C28.9204 13.1775 29.7326 13.9902 29.7326 14.9921Z" fill="url(#paint12_linear_4282_1550)"/>
<path d="M33.3616 13.5116V24.6979H29.7324V13.5116C29.7324 12.5092 30.5451 11.697 31.547 11.697C32.5494 11.697 33.3616 12.5092 33.3616 13.5116Z" fill="url(#paint13_linear_4282_1550)"/>
<path d="M36.991 14.9921V24.6979H33.3618V14.9921C33.3618 13.9902 34.174 13.1775 35.1764 13.1775C36.1783 13.1775 36.991 13.9902 36.991 14.9921Z" fill="url(#paint14_linear_4282_1550)"/>
<path d="M40.6198 16.1898V27.8342C40.6198 26.1021 39.2155 24.6978 37.4834 24.6978H36.9911V16.1898C36.9911 15.1875 37.8033 14.3752 38.8057 14.3752C39.8076 14.3752 40.6198 15.1875 40.6198 16.1898Z" fill="url(#paint15_linear_4282_1550)"/>
<path d="M23.2211 31.9689L27.4471 36.1793C28.4788 37.384 30.0116 38.1465 31.722 38.1433L32.9392 38.1411L35.0131 38.1372C38.1128 38.1315 40.6209 35.6141 40.6152 32.5144L40.6141 31.9368L23.2211 31.9689Z" fill="url(#paint16_linear_4282_1550)"/>
<path d="M40.62 16.1894V30.7101L32.5462 22.6364C30.307 20.4749 28.9603 18.1847 28.5376 15.8137C28.3862 14.9643 28.3831 14.1078 28.5187 13.2796C29.2262 13.5274 29.7329 14.2004 29.7329 14.9917V13.5117C29.7329 12.5211 30.5266 11.7157 31.5117 11.6968C32.529 11.678 33.3619 12.5298 33.3619 13.547V14.9917C33.3619 13.9902 34.1745 13.1776 35.1768 13.1776C36.1784 13.1776 36.9909 13.9902 36.9909 14.9917V16.1894C36.9909 15.1878 37.8035 14.3753 38.8058 14.3753C39.8074 14.3753 40.62 15.1878 40.62 16.1894Z" fill="url(#paint17_linear_4282_1550)"/>
<path d="M40.6201 27.5399C40.178 27.5399 39.7352 27.4352 39.3396 27.2373C38.144 26.6389 35.8093 25.3559 33.6068 23.4855C30.7417 21.0524 29.0435 18.4407 28.5592 15.7231C28.1832 13.6119 28.7201 11.4568 30.0324 9.81021C31.2478 8.28527 32.9701 7.39421 34.882 7.30096C34.9943 7.29547 35.1083 7.29272 35.2204 7.29272C37.0116 7.29272 38.7026 7.983 39.9818 9.23649C40.2129 9.46292 40.4259 9.70315 40.6199 9.95531C40.814 9.70315 41.0271 9.46284 41.2581 9.23641C42.5373 7.983 44.2283 7.29272 46.0196 7.29272C46.1318 7.29272 46.2456 7.29547 46.358 7.30096C48.2699 7.39413 49.9922 8.28527 51.2076 9.81029C52.5199 11.4569 53.0569 13.612 52.6806 15.7231C52.1965 18.4406 50.4983 21.0523 47.6332 23.4855C45.4308 25.3558 43.0961 26.6388 41.9004 27.2373C41.5049 27.4353 41.0621 27.5399 40.6201 27.5399Z" fill="url(#paint18_linear_4282_1550)"/>
<path d="M40.6198 5.78807C39.9255 5.78807 39.3627 5.22524 39.3627 4.53097V1.91693C39.3627 1.22274 39.9255 0.659912 40.6198 0.659912C41.314 0.659912 41.8769 1.22274 41.8769 1.91701V4.53105C41.8769 5.22524 41.314 5.78807 40.6198 5.78807Z" fill="url(#paint19_linear_4282_1550)"/>
<path d="M37.3805 6.64452C36.8896 7.13542 36.0937 7.13542 35.6027 6.64452L33.7543 4.79612C33.2634 4.30522 33.2634 3.5093 33.7543 3.01832C34.2452 2.52742 35.0411 2.52742 35.532 3.01832L37.3804 4.86671C37.8715 5.35762 37.8715 6.15362 37.3805 6.64452Z" fill="url(#paint20_linear_4282_1550)"/>
<path d="M43.8594 6.64452C43.3685 6.15362 43.3685 5.35769 43.8594 4.86671L45.7078 3.01832C46.1987 2.52742 46.9946 2.52742 47.4856 3.01832C47.9765 3.50922 47.9765 4.30514 47.4856 4.79605L45.6372 6.64444C45.1462 7.13542 44.3503 7.13542 43.8594 6.64452Z" fill="url(#paint21_linear_4282_1550)"/>
</g>
</g>
<defs>
<linearGradient id="paint0_linear_4282_1550" x1="46.1186" y1="23.4839" x2="52.1764" y2="33.0791" gradientUnits="userSpaceOnUse">
<stop stop-color="#FFDFCF"/>
<stop offset="1" stop-color="#FFA78F"/>
</linearGradient>
<linearGradient id="paint1_linear_4282_1550" x1="46.5734" y1="27.8524" x2="47.5408" y2="31.8262" gradientUnits="userSpaceOnUse">
<stop stop-color="#FFDFCF"/>
<stop offset="1" stop-color="#FFA78F"/>
</linearGradient>
<linearGradient id="paint2_linear_4282_1550" x1="50.1182" y1="25.5497" x2="55.3934" y2="37.4085" gradientUnits="userSpaceOnUse">
<stop stop-color="#FFDFCF"/>
<stop offset="1" stop-color="#FFA78F"/>
</linearGradient>
<linearGradient id="paint3_linear_4282_1550" x1="50.9532" y1="20.5059" x2="56.3535" y2="20.5059" gradientUnits="userSpaceOnUse">
<stop stop-color="#FFDFCF"/>
<stop offset="1" stop-color="#FFA78F"/>
</linearGradient>
<linearGradient id="paint4_linear_4282_1550" x1="47.15" y1="18.1975" x2="52.5225" y2="18.1975" gradientUnits="userSpaceOnUse">
<stop stop-color="#FFDFCF"/>
<stop offset="1" stop-color="#FFA78F"/>
</linearGradient>
<linearGradient id="paint5_linear_4282_1550" x1="43.6739" y1="18.9377" x2="49.2041" y2="18.9377" gradientUnits="userSpaceOnUse">
<stop stop-color="#FFDFCF"/>
<stop offset="1" stop-color="#FFA78F"/>
</linearGradient>
<linearGradient id="paint6_linear_4282_1550" x1="40.2799" y1="21.1047" x2="45.9326" y2="21.1047" gradientUnits="userSpaceOnUse">
<stop stop-color="#FFDFCF"/>
<stop offset="1" stop-color="#FFA78F"/>
</linearGradient>
<linearGradient id="paint7_linear_4282_1550" x1="48.4599" y1="34.8281" x2="46.5906" y2="41.0593" gradientUnits="userSpaceOnUse">
<stop stop-color="#F89580" stop-opacity="0"/>
<stop offset="0.9972" stop-color="#C5715A"/>
</linearGradient>
<linearGradient id="paint8_linear_4282_1550" x1="51.814" y1="26.5165" x2="45.6963" y2="21.2616" gradientUnits="userSpaceOnUse">
<stop stop-color="#F89580" stop-opacity="0"/>
<stop offset="0.9972" stop-color="#C5715A"/>
</linearGradient>
<linearGradient id="paint9_linear_4282_1550" x1="28.9679" y1="21.6512" x2="42.3012" y2="36.8146" gradientUnits="userSpaceOnUse">
<stop stop-color="#FFDFCF"/>
<stop offset="1" stop-color="#FFA78F"/>
</linearGradient>
<linearGradient id="paint10_linear_4282_1550" x1="31.3255" y1="28.083" x2="35.4431" y2="34.5536" gradientUnits="userSpaceOnUse">
<stop stop-color="#FFDFCF"/>
<stop offset="1" stop-color="#FFA78F"/>
</linearGradient>
<linearGradient id="paint11_linear_4282_1550" x1="25.9303" y1="26.7045" x2="30.7539" y2="37.0967" gradientUnits="userSpaceOnUse">
<stop stop-color="#FFDFCF"/>
<stop offset="1" stop-color="#FFA78F"/>
</linearGradient>
<linearGradient id="paint12_linear_4282_1550" x1="30.2872" y1="20.5059" x2="24.8868" y2="20.5059" gradientUnits="userSpaceOnUse">
<stop stop-color="#FFA78F"/>
<stop offset="1" stop-color="#FFDFCF"/>
</linearGradient>
<linearGradient id="paint13_linear_4282_1550" x1="34.0901" y1="18.1975" x2="28.7175" y2="18.1975" gradientUnits="userSpaceOnUse">
<stop stop-color="#FFA78F"/>
<stop offset="1" stop-color="#FFDFCF"/>
</linearGradient>
<linearGradient id="paint14_linear_4282_1550" x1="37.5661" y1="18.9377" x2="32.0359" y2="18.9377" gradientUnits="userSpaceOnUse">
<stop stop-color="#FFA78F"/>
<stop offset="1" stop-color="#FFDFCF"/>
</linearGradient>
<linearGradient id="paint15_linear_4282_1550" x1="40.9604" y1="21.1047" x2="35.3076" y2="21.1047" gradientUnits="userSpaceOnUse">
<stop stop-color="#FFA78F"/>
<stop offset="1" stop-color="#FFDFCF"/>
</linearGradient>
<linearGradient id="paint16_linear_4282_1550" x1="32.7802" y1="34.8281" x2="34.6496" y2="41.0593" gradientUnits="userSpaceOnUse">
<stop stop-color="#F89580" stop-opacity="0"/>
<stop offset="0.9972" stop-color="#C5715A"/>
</linearGradient>
<linearGradient id="paint17_linear_4282_1550" x1="45.0913" y1="32.1227" x2="37.9801" y2="21.5606" gradientUnits="userSpaceOnUse">
<stop stop-color="#F89580" stop-opacity="0"/>
<stop offset="0.9972" stop-color="#C5715A"/>
</linearGradient>
<linearGradient id="paint18_linear_4282_1550" x1="36.763" y1="11.024" x2="47.5907" y2="21.8518" gradientUnits="userSpaceOnUse">
<stop stop-color="#FD3581"/>
<stop offset="1" stop-color="#972437"/>
</linearGradient>
<linearGradient id="paint19_linear_4282_1550" x1="39.5002" y1="3.22642" x2="42.9916" y2="3.22642" gradientUnits="userSpaceOnUse">
<stop stop-color="#97DA7B"/>
<stop offset="0.1327" stop-color="#91D67A"/>
<stop offset="0.3049" stop-color="#81CC75"/>
<stop offset="0.4987" stop-color="#66BB6C"/>
<stop offset="0.7084" stop-color="#41A461"/>
<stop offset="0.9286" stop-color="#128653"/>
<stop offset="1" stop-color="#017B4E"/>
</linearGradient>
<linearGradient id="paint20_linear_4282_1550" x1="34.6422" y1="5.6723" x2="37.1106" y2="3.20389" gradientUnits="userSpaceOnUse">
<stop stop-color="#97DA7B"/>
<stop offset="0.1327" stop-color="#91D67A"/>
<stop offset="0.3049" stop-color="#81CC75"/>
<stop offset="0.4987" stop-color="#66BB6C"/>
<stop offset="0.7084" stop-color="#41A461"/>
<stop offset="0.9286" stop-color="#128653"/>
<stop offset="1" stop-color="#017B4E"/>
</linearGradient>
<linearGradient id="paint21_linear_4282_1550" x1="44.8424" y1="3.95259" x2="47.3109" y2="6.42105" gradientUnits="userSpaceOnUse">
<stop stop-color="#97DA7B"/>
<stop offset="0.1327" stop-color="#91D67A"/>
<stop offset="0.3049" stop-color="#81CC75"/>
<stop offset="0.4987" stop-color="#66BB6C"/>
<stop offset="0.7084" stop-color="#41A461"/>
<stop offset="0.9286" stop-color="#128653"/>
<stop offset="1" stop-color="#017B4E"/>
</linearGradient>
<clipPath id="clip0_4282_1550">
<rect width="80" height="40" fill="white" transform="translate(0.620056 0.659912)"/>
</clipPath>
</defs>
</svg>
