<svg width="118" height="136" viewBox="0 0 118 136" fill="none" xmlns="http://www.w3.org/2000/svg">
<g clip-path="url(#clip0_4282_1578)">
<path d="M107.906 52.044C106.634 49.9243 105.363 47.8046 104.086 45.6849C102.935 43.7713 100.224 43.8385 99.058 45.6849C96.894 49.1138 95.2195 52.7298 93.9911 56.4945C92.2974 52.0776 90.6036 47.6607 88.9051 43.2486C87.7296 40.1888 83.44 40.6492 83.1857 44.0207C82.845 48.4951 82.5043 52.9648 82.1637 57.4393C79.4767 49.766 76.7898 42.0976 74.1076 34.4243C73.0568 31.4173 68.4026 31.777 68.3882 35.1964C68.3066 54.8112 69.2327 74.402 71.1231 93.9064C63.4125 66.911 58.5232 39.1338 53.7011 11.4861C53.1397 8.27771 47.7418 8.99228 47.9817 12.2582C50.5199 46.596 53.0533 80.9339 55.5915 115.272C42.1855 79.3513 36.9123 40.8123 31.7543 2.96397C31.3177 -0.249196 25.6415 0.474957 26.0349 3.73609C28.8514 27.1011 30.7563 50.5621 31.7591 74.0663C30.3293 67.5392 28.8994 61.0074 27.4696 54.4803C26.6491 50.7348 21.3519 52.4277 21.8558 56.0293C22.849 63.1511 23.0553 70.3495 22.5179 77.4953C20.4883 70.2105 18.4634 62.9209 16.4338 55.6361C15.551 52.4661 10.748 53.1135 10.7145 56.4082C10.5897 67.9517 10.4649 79.4951 10.3402 91.0386C10.3018 94.7841 16.122 94.7889 16.1651 91.0386C16.2179 86.3387 16.2659 81.6388 16.3187 76.9389C17.7533 82.0944 19.1879 87.2547 20.6226 92.4102C21.3615 95.0622 25.6319 95.302 26.2365 92.4102C26.889 89.2977 27.4024 86.1756 27.7767 83.0488C29.4032 90.4726 31.0298 97.9014 32.6564 105.325C33.3665 108.558 38.4045 107.805 38.3757 104.553C38.2798 94.2278 38.0111 83.9024 37.5649 73.5867C42.1855 94.4436 48.3176 114.898 57.2997 134.469C58.4944 137.078 62.9327 135.802 62.7264 133.002C61.0134 109.819 59.3005 86.636 57.5876 63.4532C61.9683 83.7777 67.3086 103.872 74.7169 123.362C76.0652 126.911 80.8778 125.506 80.3308 121.813C76.9625 98.9708 75.0001 75.9366 74.4051 52.8593C76.6698 59.3288 78.9345 65.7935 81.1992 72.2631C82.298 75.3995 86.6692 74.8 86.9187 71.4909C87.2833 66.6952 87.648 61.8994 88.0127 57.1036C89.3082 60.4846 90.6084 63.8657 91.9039 67.2467C93.1131 70.3975 97.2299 69.7597 97.6233 66.4746C98.1895 61.7363 99.581 57.2043 101.659 52.96C102.062 53.6314 102.465 54.3076 102.872 54.979C104.801 58.1922 109.839 55.2668 107.906 52.044Z" fill="#FFEDC3"/>
</g>
<defs>
<clipPath id="clip0_4282_1578">
<rect width="117" height="135" fill="white" transform="translate(0.839996 0.890015)"/>
</clipPath>
</defs>
</svg>
